<?xml version="1.0" encoding="UTF-8"?>
<svg id="Camada_1" data-name="Camada 1" xmlns="http://www.w3.org/2000/svg" viewBox="0 0 15.24 5.08">
  <defs>
    <style>
      .cls-1 {
        fill: #fff;
        stroke-width: 0px;
      }
    </style>
  </defs>
  <path class="cls-1" d="M1.63,5.08c-.9,0-1.63-.73-1.63-1.63v-1.27c0-.2.16-.36.36-.36s.36.16.36.36v1.27c0,.5.41.91.91.91s.91-.41.91-.91v-1.27c0-.2.16-.36.36-.36s.36.16.36.36v1.27c0,.9-.73,1.63-1.63,1.63Z"/>
  <path class="cls-1" d="M6.82,5.08h-1.27c-.9,0-1.63-.73-1.63-1.63s.73-1.63,1.63-1.63h1.27c.2,0,.36.16.36.36v2.54c0,.2-.16.36-.36.36ZM5.55,2.54c-.5,0-.91.41-.91.91s.41.91.91.91h.91v-1.81h-.91Z"/>
  <path class="cls-1" d="M9.62,5.08c-.9,0-1.63-.73-1.63-1.63v-1.27c0-.2.16-.36.36-.36s.36.16.36.36v1.27c0,.5.41.91.91.91s.91-.41.91-.91v-1.27c0-.2.16-.36.36-.36s.36.16.36.36v1.27c0,.9-.73,1.63-1.63,1.63Z"/>
  <path class="cls-1" d="M13.61,1.81c-.34,0-.65.1-.91.28V.36c0-.2-.16-.36-.36-.36s-.36.16-.36.36v2.9s0,.04,0,.06c0,.04,0,.08,0,.12v1.27c0,.2.16.36.36.36s.36-.16.36-.36v-1.27c0-.5.41-.91.91-.91s.91.41.91.91v1.27c0,.2.16.36.36.36s.36-.16.36-.36v-1.27c0-.9-.73-1.63-1.63-1.63Z"/>
</svg>